<mxfile host="app.diagrams.net" modified="2023-10-17T13:04:06.179Z" agent="Mozilla/5.0 (Macintosh; Intel Mac OS X 10_15_7) AppleWebKit/537.36 (KHTML, like Gecko) Chrome/118.0.0.0 Safari/537.36" etag="IPtqcwb_XH8KVz_FbyK1" version="22.0.4" type="device">
  <diagram name="Sayfa -1" id="lq3RRNNJU4LOlvK-PFN7">
    <mxGraphModel dx="615" dy="414" grid="1" gridSize="10" guides="1" tooltips="1" connect="1" arrows="1" fold="1" page="1" pageScale="1" pageWidth="827" pageHeight="1169" math="0" shadow="0">
      <root>
        <mxCell id="0" />
        <mxCell id="1" parent="0" />
        <mxCell id="YxJcGTdFsc6YogESTc2j-1" value="SUPPLIER" style="swimlane;fontStyle=0;childLayout=stackLayout;horizontal=1;startSize=26;horizontalStack=0;resizeParent=1;resizeParentMax=0;resizeLast=0;collapsible=1;marginBottom=0;align=center;fontSize=14;" vertex="1" parent="1">
          <mxGeometry x="120" y="225" width="120" height="86" as="geometry" />
        </mxCell>
        <mxCell id="YxJcGTdFsc6YogESTc2j-2" value="locatedCity" style="text;strokeColor=none;fillColor=none;spacingLeft=4;spacingRight=4;overflow=hidden;rotatable=0;points=[[0,0.5],[1,0.5]];portConstraint=eastwest;fontSize=12;whiteSpace=wrap;html=1;" vertex="1" parent="YxJcGTdFsc6YogESTc2j-1">
          <mxGeometry y="26" width="120" height="30" as="geometry" />
        </mxCell>
        <mxCell id="YxJcGTdFsc6YogESTc2j-3" value="name" style="text;strokeColor=none;fillColor=none;spacingLeft=4;spacingRight=4;overflow=hidden;rotatable=0;points=[[0,0.5],[1,0.5]];portConstraint=eastwest;fontSize=12;whiteSpace=wrap;html=1;" vertex="1" parent="YxJcGTdFsc6YogESTc2j-1">
          <mxGeometry y="56" width="120" height="30" as="geometry" />
        </mxCell>
        <mxCell id="YxJcGTdFsc6YogESTc2j-5" value="PART" style="swimlane;fontStyle=0;childLayout=stackLayout;horizontal=1;startSize=26;horizontalStack=0;resizeParent=1;resizeParentMax=0;resizeLast=0;collapsible=1;marginBottom=0;align=center;fontSize=14;" vertex="1" parent="1">
          <mxGeometry x="494" y="210" width="120" height="116" as="geometry" />
        </mxCell>
        <mxCell id="YxJcGTdFsc6YogESTc2j-6" value="number" style="text;strokeColor=none;fillColor=none;spacingLeft=4;spacingRight=4;overflow=hidden;rotatable=0;points=[[0,0.5],[1,0.5]];portConstraint=eastwest;fontSize=12;whiteSpace=wrap;html=1;" vertex="1" parent="YxJcGTdFsc6YogESTc2j-5">
          <mxGeometry y="26" width="120" height="30" as="geometry" />
        </mxCell>
        <mxCell id="YxJcGTdFsc6YogESTc2j-7" value="color" style="text;strokeColor=none;fillColor=none;spacingLeft=4;spacingRight=4;overflow=hidden;rotatable=0;points=[[0,0.5],[1,0.5]];portConstraint=eastwest;fontSize=12;whiteSpace=wrap;html=1;" vertex="1" parent="YxJcGTdFsc6YogESTc2j-5">
          <mxGeometry y="56" width="120" height="30" as="geometry" />
        </mxCell>
        <mxCell id="YxJcGTdFsc6YogESTc2j-8" value="name" style="text;strokeColor=none;fillColor=none;spacingLeft=4;spacingRight=4;overflow=hidden;rotatable=0;points=[[0,0.5],[1,0.5]];portConstraint=eastwest;fontSize=12;whiteSpace=wrap;html=1;" vertex="1" parent="YxJcGTdFsc6YogESTc2j-5">
          <mxGeometry y="86" width="120" height="30" as="geometry" />
        </mxCell>
        <mxCell id="YxJcGTdFsc6YogESTc2j-9" value="" style="edgeStyle=entityRelationEdgeStyle;fontSize=12;html=1;endArrow=ERzeroToMany;startArrow=ERmandOne;rounded=0;entryX=0.004;entryY=0.285;entryDx=0;entryDy=0;entryPerimeter=0;exitX=0.988;exitY=0.775;exitDx=0;exitDy=0;exitPerimeter=0;" edge="1" parent="1" source="YxJcGTdFsc6YogESTc2j-2" target="YxJcGTdFsc6YogESTc2j-7">
          <mxGeometry width="100" height="100" relative="1" as="geometry">
            <mxPoint x="240" y="275" as="sourcePoint" />
            <mxPoint x="440" y="275" as="targetPoint" />
          </mxGeometry>
        </mxCell>
        <mxCell id="YxJcGTdFsc6YogESTc2j-10" value="supplies" style="edgeLabel;html=1;align=center;verticalAlign=middle;resizable=0;points=[];" vertex="1" connectable="0" parent="YxJcGTdFsc6YogESTc2j-9">
          <mxGeometry x="0.7181" y="1" relative="1" as="geometry">
            <mxPoint x="-189" y="-19" as="offset" />
          </mxGeometry>
        </mxCell>
        <mxCell id="YxJcGTdFsc6YogESTc2j-11" value="is supplied" style="edgeLabel;html=1;align=center;verticalAlign=middle;resizable=0;points=[];" vertex="1" connectable="0" parent="YxJcGTdFsc6YogESTc2j-9">
          <mxGeometry x="-0.8058" relative="1" as="geometry">
            <mxPoint x="197" y="-19" as="offset" />
          </mxGeometry>
        </mxCell>
        <mxCell id="YxJcGTdFsc6YogESTc2j-12" value="QUANTITY" style="rounded=1;whiteSpace=wrap;html=1;" vertex="1" parent="1">
          <mxGeometry x="310" y="350" width="120" height="60" as="geometry" />
        </mxCell>
        <mxCell id="YxJcGTdFsc6YogESTc2j-13" value="" style="endArrow=none;dashed=1;html=1;dashPattern=1 3;strokeWidth=2;rounded=0;exitX=0.5;exitY=0;exitDx=0;exitDy=0;" edge="1" parent="1" source="YxJcGTdFsc6YogESTc2j-12">
          <mxGeometry width="50" height="50" relative="1" as="geometry">
            <mxPoint x="310" y="340" as="sourcePoint" />
            <mxPoint x="370" y="280" as="targetPoint" />
          </mxGeometry>
        </mxCell>
      </root>
    </mxGraphModel>
  </diagram>
</mxfile>
